# xmcd
#
# Track frame offsets:
#	180
#	14203
#	29214
#	45173
#	60587
#	73533
#	86666
#	98640
#	110959
#	123584
#	137031
#	150010
#	163045
#	179239
#
# Disc length: 2636 seconds
#
# Revision: 7
# Processed by: cddbd v1.5.2PL0 Copyright (c) Steve Scherf et al.
# Submitted via: EZCDAudioConverter 3.1.0.1
#
DISCID=c40a4a0e
DTITLE=Límite - Sentimientos
DYEAR=1997
DGENRE=Country
TTITLE0=Hasta Mañana
TTITLE1=Donde Estas
TTITLE2=Se Acabo
TTITLE3=Se Quebro El Amor
TTITLE4=Tu Oportunidad
TTITLE5=Para Ser Feliz
TTITLE6=Mi Dueño
TTITLE7=Alcanzame
TTITLE8=Lastima
TTITLE9=No Cabe Duda
TTITLE10=Sentimientos
TTITLE11=Vuelve
TTITLE12=Me Ire De Aqui
TTITLE13=Without You
EXTD=
EXTT0=
EXTT1=
EXTT2=
EXTT3=
EXTT4=
EXTT5=
EXTT6=
EXTT7=
EXTT8=
EXTT9=
EXTT10=
EXTT11=
EXTT12=
EXTT13=
PLAYORDER=
